<svg xmlns="http://www.w3.org/2000/svg" width="15" height="13" viewBox="0 0 15 13" fill="none">
  <path d="M12.75 0.75H2.08333C1.34695 0.75 0.75 1.34695 0.75 2.08333V3.41667C0.75 4.15305 1.34695 4.75 2.08333 4.75H12.75C13.4864 4.75 14.0833 4.15305 14.0833 3.41667V2.08333C14.0833 1.34695 13.4864 0.75 12.75 0.75Z" stroke="currentColor" stroke-width="1.5" stroke-linecap="round" stroke-linejoin="round"/>
  <path d="M12.75 7.41667H2.08333C1.34695 7.41667 0.75 8.01362 0.75 8.75V10.0833C0.75 10.8197 1.34695 11.4167 2.08333 11.4167H12.75C13.4864 11.4167 14.0833 10.8197 14.0833 10.0833V8.75C14.0833 8.01362 13.4864 7.41667 12.75 7.41667Z" stroke="currentColor" stroke-width="1.5" stroke-linecap="round" stroke-linejoin="round"/>
</svg>